<?xml version="1.0" encoding="utf-8"?>
<!-- Generator: Adobe Illustrator 26.0.3, SVG Export Plug-In . SVG Version: 6.00 Build 0)  -->
<svg version="1.1" id="Слой_1" xmlns="http://www.w3.org/2000/svg" xmlns:xlink="http://www.w3.org/1999/xlink" x="0px" y="0px"
	 viewBox="0 0 333 83" style="enable-background:new 0 0 333 83;" xml:space="preserve">
<style type="text/css">
	.st0{opacity:0.18;fill:#F8E149;}
	.st1{opacity:0.18;}
	.st2{fill:#F8E149;}
	.st3{opacity:0.1;}
	.st4{opacity:0.25;}
	.st5{opacity:6.000000e-02;}
</style>
<rect x="312.8" y="67.4" class="st0" width="9.8" height="9.8"/>
<rect x="302.6" y="38.8" class="st0" width="5.3" height="5.3"/>
<g class="st1">
	<rect x="280.6" y="45.1" class="st2" width="5.3" height="5.3"/>
</g>
<rect x="284.8" y="77.2" class="st0" width="3.6" height="3.6"/>
<g class="st3">
	<rect x="254.6" y="75.4" class="st2" width="3.6" height="3.6"/>
</g>
<g class="st1">
	<rect x="294.8" y="62.5" class="st2" width="3.6" height="3.6"/>
</g>
<rect x="311.5" y="56.3" class="st0" width="2.7" height="2.7"/>
<rect x="319.2" y="50.7" class="st0" width="2.7" height="2.7"/>
<g class="st3">
	<rect x="269.8" y="69" class="st2" width="6.7" height="6.7"/>
</g>
<g class="st1">
	<rect x="273.9" y="53.6" class="st2" width="5.3" height="5.3"/>
</g>
<g class="st4">
	<rect x="320" y="28.8" class="st2" width="5.3" height="5.3"/>
</g>
<g class="st3">
	<rect x="257.4" y="45.1" class="st2" width="3.6" height="3.6"/>
</g>
<g class="st3">
	<rect x="264.5" y="50" class="st2" width="2.7" height="2.7"/>
</g>
<g class="st5">
	<rect x="209" y="51.1" class="st2" width="9.8" height="9.8"/>
</g>
<g class="st5">
	<rect x="215.2" y="65.8" class="st2" width="5.3" height="5.3"/>
</g>
<g class="st5">
	<rect x="178" y="63.4" class="st2" width="5.3" height="5.3"/>
</g>
<g class="st5">
	<rect x="222.8" y="48.5" class="st2" width="3.6" height="3.6"/>
</g>
<g class="st5">
	<rect x="154.5" y="42.3" class="st2" width="3.6" height="3.6"/>
</g>
<g class="st5">
	<rect x="216.1" y="73.9" class="st2" width="2.7" height="2.7"/>
</g>
<g class="st5">
	<rect x="201" y="74.3" class="st2" width="2.7" height="2.7"/>
</g>
<rect x="303" y="9.8" class="st0" width="9.8" height="9.8"/>
<g class="st1">
	<rect x="280.6" y="0.2" class="st2" width="5.3" height="5.3"/>
</g>
<rect x="295.2" y="29.6" class="st0" width="3.6" height="3.6"/>
<g class="st3">
	<rect x="254.6" y="30.5" class="st2" width="3.6" height="3.6"/>
</g>
<g class="st3">
	<rect x="256.4" y="16.7" class="st2" width="3.6" height="3.6"/>
</g>
<rect x="315" y="31.9" class="st0" width="2.7" height="2.7"/>
<rect x="322.6" y="15.6" class="st0" width="2.7" height="2.7"/>
<rect x="298.8" y="5.8" class="st0" width="2.7" height="2.7"/>
<g class="st1">
	<rect x="283.3" y="18.5" class="st2" width="6.7" height="6.7"/>
</g>
<g class="st1">
	<rect x="273.9" y="8.7" class="st2" width="5.3" height="5.3"/>
</g>
<g class="st4">
	<rect x="297.5" y="71.2" class="st2" width="5.3" height="5.3"/>
</g>
<g class="st3">
	<rect x="257.4" y="0.2" class="st2" width="3.6" height="3.6"/>
</g>
<g class="st3">
	<rect x="251.1" y="12.9" class="st2" width="3.6" height="3.6"/>
</g>
<g class="st3">
	<rect x="264.5" y="5.1" class="st2" width="2.7" height="2.7"/>
</g>
<g class="st5">
	<rect x="209" y="6.2" class="st2" width="9.8" height="9.8"/>
</g>
<g class="st5">
	<rect x="215.2" y="21" class="st2" width="5.3" height="5.3"/>
</g>
<g class="st5">
	<rect x="189.2" y="14.3" class="st2" width="5.3" height="5.3"/>
</g>
<g class="st5">
	<rect x="222.8" y="3.6" class="st2" width="3.6" height="3.6"/>
</g>
<g class="st5">
	<rect x="198.7" class="st2" width="3.6" height="3.6"/>
</g>
<g class="st5">
	<rect x="216.1" y="29" class="st2" width="2.7" height="2.7"/>
</g>
<g class="st5">
	<rect x="202.4" y="33.2" class="st2" width="2.7" height="2.7"/>
</g>
</svg>
